<mxfile host="app.diagrams.net" agent="Mozilla/5.0 (X11; Linux x86_64; rv:132.0) Gecko/20100101 Firefox/132.0" version="24.9.3">
  <diagram name="Page-1" id="EHbDZYoHjk3vQe8Ejhvv">
    <mxGraphModel dx="1828" dy="512" grid="1" gridSize="10" guides="1" tooltips="1" connect="1" arrows="1" fold="1" page="1" pageScale="1" pageWidth="850" pageHeight="1100" math="0" shadow="0">
      <root>
        <mxCell id="0" />
        <mxCell id="1" parent="0" />
        <mxCell id="3pYKi4AClHYdLQsbnEup-44" style="edgeStyle=orthogonalEdgeStyle;shape=connector;rounded=0;orthogonalLoop=1;jettySize=auto;html=1;exitX=0;exitY=0.25;exitDx=0;exitDy=0;strokeColor=default;align=center;verticalAlign=middle;fontFamily=Helvetica;fontSize=11;fontColor=default;labelBackgroundColor=default;endArrow=none;endFill=0;" edge="1" parent="1">
          <mxGeometry relative="1" as="geometry">
            <mxPoint x="-150" y="179.85954022988514" as="targetPoint" />
            <mxPoint x="-120" y="179.94000000000003" as="sourcePoint" />
            <Array as="points">
              <mxPoint x="-130" y="179.94000000000003" />
              <mxPoint x="-130" y="179.94000000000003" />
            </Array>
          </mxGeometry>
        </mxCell>
        <mxCell id="3pYKi4AClHYdLQsbnEup-40" value="" style="ellipse;whiteSpace=wrap;html=1;aspect=fixed;fontFamily=Helvetica;fontSize=11;fontColor=default;labelBackgroundColor=default;fillColor=#000000;" vertex="1" parent="1">
          <mxGeometry x="-120" y="175" width="10" height="10" as="geometry" />
        </mxCell>
        <mxCell id="3pYKi4AClHYdLQsbnEup-50" style="edgeStyle=orthogonalEdgeStyle;shape=connector;rounded=0;orthogonalLoop=1;jettySize=auto;html=1;strokeColor=default;align=center;verticalAlign=middle;fontFamily=Helvetica;fontSize=11;fontColor=default;labelBackgroundColor=default;endArrow=none;endFill=0;" edge="1" parent="1">
          <mxGeometry relative="1" as="geometry">
            <mxPoint x="-410.08" y="370" as="targetPoint" />
            <mxPoint x="-410" y="400" as="sourcePoint" />
            <Array as="points">
              <mxPoint x="-410.11" y="380" />
              <mxPoint x="-410.11" y="380" />
            </Array>
          </mxGeometry>
        </mxCell>
        <mxCell id="3pYKi4AClHYdLQsbnEup-51" value="" style="ellipse;whiteSpace=wrap;html=1;aspect=fixed;fontFamily=Helvetica;fontSize=11;fontColor=default;labelBackgroundColor=default;" vertex="1" parent="1">
          <mxGeometry x="-415" y="400" width="10" height="10" as="geometry" />
        </mxCell>
        <mxCell id="3pYKi4AClHYdLQsbnEup-181" style="edgeStyle=orthogonalEdgeStyle;shape=connector;rounded=0;orthogonalLoop=1;jettySize=auto;html=1;entryX=0.5;entryY=0;entryDx=0;entryDy=0;strokeColor=default;align=center;verticalAlign=middle;fontFamily=Helvetica;fontSize=11;fontColor=default;labelBackgroundColor=default;endArrow=none;endFill=0;" edge="1" parent="1" source="3pYKi4AClHYdLQsbnEup-126" target="3pYKi4AClHYdLQsbnEup-127">
          <mxGeometry relative="1" as="geometry" />
        </mxCell>
        <mxCell id="3pYKi4AClHYdLQsbnEup-126" value="Prenotazione" style="whiteSpace=wrap;html=1;align=center;" vertex="1" parent="1">
          <mxGeometry x="-500" y="160" width="100" height="40" as="geometry" />
        </mxCell>
        <mxCell id="3pYKi4AClHYdLQsbnEup-182" style="edgeStyle=orthogonalEdgeStyle;shape=connector;rounded=0;orthogonalLoop=1;jettySize=auto;html=1;exitX=0.5;exitY=1;exitDx=0;exitDy=0;entryX=0.5;entryY=0;entryDx=0;entryDy=0;strokeColor=default;align=center;verticalAlign=middle;fontFamily=Helvetica;fontSize=11;fontColor=default;labelBackgroundColor=default;endArrow=none;endFill=0;" edge="1" parent="1" source="3pYKi4AClHYdLQsbnEup-127" target="3pYKi4AClHYdLQsbnEup-128">
          <mxGeometry relative="1" as="geometry" />
        </mxCell>
        <mxCell id="3pYKi4AClHYdLQsbnEup-127" value="Include" style="shape=rhombus;perimeter=rhombusPerimeter;whiteSpace=wrap;html=1;align=center;fontFamily=Helvetica;fontSize=11;fontColor=default;labelBackgroundColor=default;" vertex="1" parent="1">
          <mxGeometry x="-485" y="240" width="70" height="60" as="geometry" />
        </mxCell>
        <mxCell id="3pYKi4AClHYdLQsbnEup-193" style="edgeStyle=orthogonalEdgeStyle;shape=connector;rounded=0;orthogonalLoop=1;jettySize=auto;html=1;strokeColor=default;align=center;verticalAlign=middle;fontFamily=Helvetica;fontSize=11;fontColor=default;labelBackgroundColor=default;endArrow=none;endFill=0;" edge="1" parent="1">
          <mxGeometry relative="1" as="geometry">
            <mxPoint x="-530" y="337.92" as="targetPoint" />
            <mxPoint x="-500" y="337.929708737864" as="sourcePoint" />
          </mxGeometry>
        </mxCell>
        <mxCell id="3pYKi4AClHYdLQsbnEup-128" value="Servizio" style="whiteSpace=wrap;html=1;align=center;" vertex="1" parent="1">
          <mxGeometry x="-500" y="330" width="100" height="40" as="geometry" />
        </mxCell>
        <mxCell id="3pYKi4AClHYdLQsbnEup-180" style="edgeStyle=orthogonalEdgeStyle;shape=connector;rounded=0;orthogonalLoop=1;jettySize=auto;html=1;entryX=1;entryY=0.5;entryDx=0;entryDy=0;strokeColor=default;align=center;verticalAlign=middle;fontFamily=Helvetica;fontSize=11;fontColor=default;labelBackgroundColor=default;endArrow=none;endFill=0;" edge="1" parent="1" source="3pYKi4AClHYdLQsbnEup-129" target="3pYKi4AClHYdLQsbnEup-131">
          <mxGeometry relative="1" as="geometry" />
        </mxCell>
        <mxCell id="3pYKi4AClHYdLQsbnEup-129" value="Feedback" style="whiteSpace=wrap;html=1;align=center;" vertex="1" parent="1">
          <mxGeometry x="-250" y="160" width="100" height="40" as="geometry" />
        </mxCell>
        <mxCell id="3pYKi4AClHYdLQsbnEup-130" value="Turno" style="whiteSpace=wrap;html=1;align=center;" vertex="1" parent="1">
          <mxGeometry x="-750" y="160" width="100" height="40" as="geometry" />
        </mxCell>
        <mxCell id="3pYKi4AClHYdLQsbnEup-177" style="edgeStyle=orthogonalEdgeStyle;shape=connector;rounded=0;orthogonalLoop=1;jettySize=auto;html=1;entryX=1;entryY=0.5;entryDx=0;entryDy=0;strokeColor=default;align=center;verticalAlign=middle;fontFamily=Helvetica;fontSize=11;fontColor=default;labelBackgroundColor=default;endArrow=none;endFill=0;" edge="1" parent="1" source="3pYKi4AClHYdLQsbnEup-131" target="3pYKi4AClHYdLQsbnEup-126">
          <mxGeometry relative="1" as="geometry" />
        </mxCell>
        <mxCell id="3pYKi4AClHYdLQsbnEup-131" value="Riceve" style="shape=rhombus;perimeter=rhombusPerimeter;whiteSpace=wrap;html=1;align=center;fontFamily=Helvetica;fontSize=11;fontColor=default;labelBackgroundColor=default;" vertex="1" parent="1">
          <mxGeometry x="-360" y="150" width="70" height="60" as="geometry" />
        </mxCell>
        <mxCell id="3pYKi4AClHYdLQsbnEup-173" style="edgeStyle=orthogonalEdgeStyle;shape=connector;rounded=0;orthogonalLoop=1;jettySize=auto;html=1;strokeColor=default;align=center;verticalAlign=middle;fontFamily=Helvetica;fontSize=11;fontColor=default;labelBackgroundColor=default;endArrow=none;endFill=0;" edge="1" parent="1" source="3pYKi4AClHYdLQsbnEup-132">
          <mxGeometry relative="1" as="geometry">
            <mxPoint x="-650" y="180" as="targetPoint" />
          </mxGeometry>
        </mxCell>
        <mxCell id="3pYKi4AClHYdLQsbnEup-175" style="edgeStyle=orthogonalEdgeStyle;shape=connector;rounded=0;orthogonalLoop=1;jettySize=auto;html=1;entryX=0;entryY=0.5;entryDx=0;entryDy=0;strokeColor=default;align=center;verticalAlign=middle;fontFamily=Helvetica;fontSize=11;fontColor=default;labelBackgroundColor=default;endArrow=none;endFill=0;" edge="1" parent="1" source="3pYKi4AClHYdLQsbnEup-132" target="3pYKi4AClHYdLQsbnEup-126">
          <mxGeometry relative="1" as="geometry" />
        </mxCell>
        <mxCell id="3pYKi4AClHYdLQsbnEup-132" value="Gestisce" style="shape=rhombus;perimeter=rhombusPerimeter;whiteSpace=wrap;html=1;align=center;fontFamily=Helvetica;fontSize=11;fontColor=default;labelBackgroundColor=default;" vertex="1" parent="1">
          <mxGeometry x="-610" y="150" width="70" height="60" as="geometry" />
        </mxCell>
        <mxCell id="3pYKi4AClHYdLQsbnEup-133" style="edgeStyle=orthogonalEdgeStyle;shape=connector;rounded=0;orthogonalLoop=1;jettySize=auto;html=1;exitX=0.25;exitY=0;exitDx=0;exitDy=0;strokeColor=default;align=center;verticalAlign=middle;fontFamily=Helvetica;fontSize=11;fontColor=default;labelBackgroundColor=default;endArrow=none;endFill=0;" edge="1" parent="1">
          <mxGeometry relative="1" as="geometry">
            <mxPoint x="-490.04999999999995" y="130" as="targetPoint" />
            <mxPoint x="-490.08" y="160" as="sourcePoint" />
            <Array as="points">
              <mxPoint x="-490.08" y="140" />
              <mxPoint x="-490.08" y="140" />
            </Array>
          </mxGeometry>
        </mxCell>
        <mxCell id="3pYKi4AClHYdLQsbnEup-135" style="edgeStyle=orthogonalEdgeStyle;shape=connector;rounded=0;orthogonalLoop=1;jettySize=auto;html=1;exitX=0.25;exitY=0;exitDx=0;exitDy=0;strokeColor=default;align=center;verticalAlign=middle;fontFamily=Helvetica;fontSize=11;fontColor=default;labelBackgroundColor=default;endArrow=none;endFill=0;" edge="1" parent="1">
          <mxGeometry relative="1" as="geometry">
            <mxPoint x="-470.04999999999995" y="130" as="targetPoint" />
            <mxPoint x="-470.08" y="160" as="sourcePoint" />
            <Array as="points">
              <mxPoint x="-470.08" y="140" />
              <mxPoint x="-470.08" y="140" />
            </Array>
          </mxGeometry>
        </mxCell>
        <mxCell id="3pYKi4AClHYdLQsbnEup-136" value="" style="ellipse;whiteSpace=wrap;html=1;aspect=fixed;fontFamily=Helvetica;fontSize=11;fontColor=default;labelBackgroundColor=default;" vertex="1" parent="1">
          <mxGeometry x="-475" y="120" width="10" height="10" as="geometry" />
        </mxCell>
        <mxCell id="3pYKi4AClHYdLQsbnEup-139" style="edgeStyle=orthogonalEdgeStyle;shape=connector;rounded=0;orthogonalLoop=1;jettySize=auto;html=1;exitX=0.25;exitY=0;exitDx=0;exitDy=0;strokeColor=default;align=center;verticalAlign=middle;fontFamily=Helvetica;fontSize=11;fontColor=default;labelBackgroundColor=default;endArrow=none;endFill=0;" edge="1" parent="1">
          <mxGeometry relative="1" as="geometry">
            <mxPoint x="-450.04999999999995" y="130" as="targetPoint" />
            <mxPoint x="-450.08" y="160" as="sourcePoint" />
            <Array as="points">
              <mxPoint x="-450.08" y="140" />
              <mxPoint x="-450.08" y="140" />
            </Array>
          </mxGeometry>
        </mxCell>
        <mxCell id="3pYKi4AClHYdLQsbnEup-140" value="" style="ellipse;whiteSpace=wrap;html=1;aspect=fixed;fontFamily=Helvetica;fontSize=11;fontColor=default;labelBackgroundColor=default;" vertex="1" parent="1">
          <mxGeometry x="-455" y="120" width="10" height="10" as="geometry" />
        </mxCell>
        <mxCell id="3pYKi4AClHYdLQsbnEup-142" value="" style="ellipse;whiteSpace=wrap;html=1;aspect=fixed;fontFamily=Helvetica;fontSize=11;fontColor=default;labelBackgroundColor=default;fillColor=#000000;" vertex="1" parent="1">
          <mxGeometry x="-495" y="120" width="10" height="10" as="geometry" />
        </mxCell>
        <mxCell id="3pYKi4AClHYdLQsbnEup-143" value="Id_Prenotazione" style="text;html=1;align=center;verticalAlign=middle;resizable=0;points=[];autosize=1;strokeColor=none;fillColor=none;fontFamily=Helvetica;fontSize=11;fontColor=default;labelBackgroundColor=default;rotation=90;" vertex="1" parent="1">
          <mxGeometry x="-540" y="60" width="100" height="30" as="geometry" />
        </mxCell>
        <mxCell id="3pYKi4AClHYdLQsbnEup-144" value="Data" style="text;html=1;align=center;verticalAlign=middle;resizable=0;points=[];autosize=1;strokeColor=none;fillColor=none;fontFamily=Helvetica;fontSize=11;fontColor=default;labelBackgroundColor=default;rotation=90;" vertex="1" parent="1">
          <mxGeometry x="-495" y="90" width="50" height="30" as="geometry" />
        </mxCell>
        <mxCell id="3pYKi4AClHYdLQsbnEup-145" value="Ora" style="text;html=1;align=center;verticalAlign=middle;resizable=0;points=[];autosize=1;strokeColor=none;fillColor=none;fontFamily=Helvetica;fontSize=11;fontColor=default;labelBackgroundColor=default;rotation=90;" vertex="1" parent="1">
          <mxGeometry x="-470" y="90" width="40" height="30" as="geometry" />
        </mxCell>
        <mxCell id="3pYKi4AClHYdLQsbnEup-150" style="edgeStyle=orthogonalEdgeStyle;shape=connector;rounded=0;orthogonalLoop=1;jettySize=auto;html=1;exitX=0.25;exitY=0;exitDx=0;exitDy=0;strokeColor=default;align=center;verticalAlign=middle;fontFamily=Helvetica;fontSize=11;fontColor=default;labelBackgroundColor=default;endArrow=none;endFill=0;" edge="1" parent="1">
          <mxGeometry relative="1" as="geometry">
            <mxPoint x="-430.04999999999995" y="130" as="targetPoint" />
            <mxPoint x="-430.08" y="160" as="sourcePoint" />
            <Array as="points">
              <mxPoint x="-430.08" y="140" />
              <mxPoint x="-430.08" y="140" />
            </Array>
          </mxGeometry>
        </mxCell>
        <mxCell id="3pYKi4AClHYdLQsbnEup-151" value="" style="ellipse;whiteSpace=wrap;html=1;aspect=fixed;fontFamily=Helvetica;fontSize=11;fontColor=default;labelBackgroundColor=default;" vertex="1" parent="1">
          <mxGeometry x="-435" y="120" width="10" height="10" as="geometry" />
        </mxCell>
        <mxCell id="3pYKi4AClHYdLQsbnEup-152" value="Stato" style="text;html=1;align=center;verticalAlign=middle;resizable=0;points=[];autosize=1;strokeColor=none;fillColor=none;fontFamily=Helvetica;fontSize=11;fontColor=default;labelBackgroundColor=default;rotation=90;" vertex="1" parent="1">
          <mxGeometry x="-455" y="90" width="50" height="30" as="geometry" />
        </mxCell>
        <mxCell id="3pYKi4AClHYdLQsbnEup-153" style="edgeStyle=orthogonalEdgeStyle;shape=connector;rounded=0;orthogonalLoop=1;jettySize=auto;html=1;exitX=0.25;exitY=0;exitDx=0;exitDy=0;strokeColor=default;align=center;verticalAlign=middle;fontFamily=Helvetica;fontSize=11;fontColor=default;labelBackgroundColor=default;endArrow=none;endFill=0;" edge="1" parent="1">
          <mxGeometry relative="1" as="geometry">
            <mxPoint x="-410.04999999999995" y="130" as="targetPoint" />
            <mxPoint x="-410.08" y="160" as="sourcePoint" />
            <Array as="points">
              <mxPoint x="-410.08" y="140" />
              <mxPoint x="-410.08" y="140" />
            </Array>
          </mxGeometry>
        </mxCell>
        <mxCell id="3pYKi4AClHYdLQsbnEup-154" value="" style="ellipse;whiteSpace=wrap;html=1;aspect=fixed;fontFamily=Helvetica;fontSize=11;fontColor=default;labelBackgroundColor=default;" vertex="1" parent="1">
          <mxGeometry x="-415" y="120" width="10" height="10" as="geometry" />
        </mxCell>
        <mxCell id="3pYKi4AClHYdLQsbnEup-155" value="Note" style="text;html=1;align=center;verticalAlign=middle;resizable=0;points=[];autosize=1;strokeColor=none;fillColor=none;fontFamily=Helvetica;fontSize=11;fontColor=default;labelBackgroundColor=default;rotation=90;" vertex="1" parent="1">
          <mxGeometry x="-435" y="90" width="50" height="30" as="geometry" />
        </mxCell>
        <mxCell id="3pYKi4AClHYdLQsbnEup-156" style="edgeStyle=orthogonalEdgeStyle;shape=connector;rounded=0;orthogonalLoop=1;jettySize=auto;html=1;exitX=0.25;exitY=0;exitDx=0;exitDy=0;strokeColor=default;align=center;verticalAlign=middle;fontFamily=Helvetica;fontSize=11;fontColor=default;labelBackgroundColor=default;endArrow=none;endFill=0;" edge="1" parent="1">
          <mxGeometry relative="1" as="geometry">
            <mxPoint x="-740.05" y="130" as="targetPoint" />
            <mxPoint x="-740.0799999999999" y="160" as="sourcePoint" />
            <Array as="points">
              <mxPoint x="-740.0799999999999" y="140" />
              <mxPoint x="-740.0799999999999" y="140" />
            </Array>
          </mxGeometry>
        </mxCell>
        <mxCell id="3pYKi4AClHYdLQsbnEup-157" value="" style="ellipse;whiteSpace=wrap;html=1;aspect=fixed;fontFamily=Helvetica;fontSize=11;fontColor=default;labelBackgroundColor=default;fillColor=#000000;" vertex="1" parent="1">
          <mxGeometry x="-745" y="120" width="10" height="10" as="geometry" />
        </mxCell>
        <mxCell id="3pYKi4AClHYdLQsbnEup-158" value="Id_Testo" style="text;html=1;align=center;verticalAlign=middle;resizable=0;points=[];autosize=1;strokeColor=none;fillColor=none;fontFamily=Helvetica;fontSize=11;fontColor=default;labelBackgroundColor=default;rotation=90;" vertex="1" parent="1">
          <mxGeometry x="-775" y="70" width="70" height="30" as="geometry" />
        </mxCell>
        <mxCell id="3pYKi4AClHYdLQsbnEup-161" value="" style="ellipse;whiteSpace=wrap;html=1;aspect=fixed;fontFamily=Helvetica;fontSize=11;fontColor=default;labelBackgroundColor=default;" vertex="1" parent="1">
          <mxGeometry x="-715" y="120" width="10" height="10" as="geometry" />
        </mxCell>
        <mxCell id="3pYKi4AClHYdLQsbnEup-162" style="edgeStyle=orthogonalEdgeStyle;shape=connector;rounded=0;orthogonalLoop=1;jettySize=auto;html=1;exitX=0.25;exitY=0;exitDx=0;exitDy=0;strokeColor=default;align=center;verticalAlign=middle;fontFamily=Helvetica;fontSize=11;fontColor=default;labelBackgroundColor=default;endArrow=none;endFill=0;" edge="1" parent="1">
          <mxGeometry relative="1" as="geometry">
            <mxPoint x="-709.9499999999999" y="130" as="targetPoint" />
            <mxPoint x="-709.9799999999999" y="160" as="sourcePoint" />
            <Array as="points">
              <mxPoint x="-709.9799999999999" y="140" />
              <mxPoint x="-709.9799999999999" y="140" />
            </Array>
          </mxGeometry>
        </mxCell>
        <mxCell id="3pYKi4AClHYdLQsbnEup-163" value="OraInizio" style="text;html=1;align=center;verticalAlign=middle;resizable=0;points=[];autosize=1;strokeColor=none;fillColor=none;fontFamily=Helvetica;fontSize=11;fontColor=default;labelBackgroundColor=default;rotation=90;" vertex="1" parent="1">
          <mxGeometry x="-745" y="70" width="70" height="30" as="geometry" />
        </mxCell>
        <mxCell id="3pYKi4AClHYdLQsbnEup-166" value="" style="edgeStyle=orthogonalEdgeStyle;shape=connector;rounded=0;orthogonalLoop=1;jettySize=auto;html=1;exitX=0.25;exitY=0;exitDx=0;exitDy=0;strokeColor=default;align=center;verticalAlign=middle;fontFamily=Helvetica;fontSize=11;fontColor=default;labelBackgroundColor=default;endArrow=none;endFill=0;" edge="1" parent="1">
          <mxGeometry relative="1" as="geometry">
            <mxPoint x="-685.0423622047243" y="129.99895208809244" as="targetPoint" />
            <mxPoint x="-685.0199999999999" y="160" as="sourcePoint" />
            <Array as="points">
              <mxPoint x="-685.0199999999999" y="140" />
              <mxPoint x="-685.0199999999999" y="140" />
            </Array>
          </mxGeometry>
        </mxCell>
        <mxCell id="3pYKi4AClHYdLQsbnEup-164" value="" style="ellipse;whiteSpace=wrap;html=1;aspect=fixed;fontFamily=Helvetica;fontSize=11;fontColor=default;labelBackgroundColor=default;" vertex="1" parent="1">
          <mxGeometry x="-690" y="120" width="10" height="10" as="geometry" />
        </mxCell>
        <mxCell id="3pYKi4AClHYdLQsbnEup-167" value="OraFine" style="text;html=1;align=center;verticalAlign=middle;resizable=0;points=[];autosize=1;strokeColor=none;fillColor=none;fontFamily=Helvetica;fontSize=11;fontColor=default;labelBackgroundColor=default;rotation=90;" vertex="1" parent="1">
          <mxGeometry x="-715" y="70" width="60" height="30" as="geometry" />
        </mxCell>
        <mxCell id="3pYKi4AClHYdLQsbnEup-168" value="" style="edgeStyle=orthogonalEdgeStyle;shape=connector;rounded=0;orthogonalLoop=1;jettySize=auto;html=1;exitX=0.25;exitY=0;exitDx=0;exitDy=0;strokeColor=default;align=center;verticalAlign=middle;fontFamily=Helvetica;fontSize=11;fontColor=default;labelBackgroundColor=default;endArrow=none;endFill=0;" edge="1" parent="1">
          <mxGeometry relative="1" as="geometry">
            <mxPoint x="-655.1023622047243" y="129.99895208809244" as="targetPoint" />
            <mxPoint x="-655.0799999999998" y="160" as="sourcePoint" />
            <Array as="points">
              <mxPoint x="-655.0799999999998" y="140" />
              <mxPoint x="-655.0799999999998" y="140" />
            </Array>
          </mxGeometry>
        </mxCell>
        <mxCell id="3pYKi4AClHYdLQsbnEup-169" value="" style="ellipse;whiteSpace=wrap;html=1;aspect=fixed;fontFamily=Helvetica;fontSize=11;fontColor=default;labelBackgroundColor=default;" vertex="1" parent="1">
          <mxGeometry x="-660" y="120" width="10" height="10" as="geometry" />
        </mxCell>
        <mxCell id="3pYKi4AClHYdLQsbnEup-172" value="Data" style="text;html=1;align=center;verticalAlign=middle;resizable=0;points=[];autosize=1;strokeColor=none;fillColor=none;fontFamily=Helvetica;fontSize=11;fontColor=default;labelBackgroundColor=default;rotation=90;" vertex="1" parent="1">
          <mxGeometry x="-680" y="80" width="50" height="30" as="geometry" />
        </mxCell>
        <mxCell id="3pYKi4AClHYdLQsbnEup-183" style="edgeStyle=orthogonalEdgeStyle;shape=connector;rounded=0;orthogonalLoop=1;jettySize=auto;html=1;strokeColor=default;align=center;verticalAlign=middle;fontFamily=Helvetica;fontSize=11;fontColor=default;labelBackgroundColor=default;endArrow=none;endFill=0;" edge="1" parent="1">
          <mxGeometry relative="1" as="geometry">
            <mxPoint x="-490.0799999999999" y="370" as="targetPoint" />
            <mxPoint x="-490" y="400" as="sourcePoint" />
            <Array as="points">
              <mxPoint x="-490.10999999999996" y="387" />
              <mxPoint x="-490.10999999999996" y="387" />
            </Array>
          </mxGeometry>
        </mxCell>
        <mxCell id="3pYKi4AClHYdLQsbnEup-184" value="" style="ellipse;whiteSpace=wrap;html=1;aspect=fixed;fontFamily=Helvetica;fontSize=11;fontColor=default;labelBackgroundColor=default;fillColor=#000000;" vertex="1" parent="1">
          <mxGeometry x="-540" y="333" width="10" height="10" as="geometry" />
        </mxCell>
        <mxCell id="3pYKi4AClHYdLQsbnEup-185" value="Id_Servizio" style="text;html=1;align=center;verticalAlign=middle;resizable=0;points=[];autosize=1;strokeColor=none;fillColor=none;fontFamily=Helvetica;fontSize=11;fontColor=default;labelBackgroundColor=default;" vertex="1" parent="1">
          <mxGeometry x="-615" y="323" width="80" height="30" as="geometry" />
        </mxCell>
        <mxCell id="3pYKi4AClHYdLQsbnEup-186" value="Tipo" style="text;html=1;align=center;verticalAlign=middle;resizable=0;points=[];autosize=1;strokeColor=none;fillColor=none;fontFamily=Helvetica;fontSize=11;fontColor=default;labelBackgroundColor=default;" vertex="1" parent="1">
          <mxGeometry x="-510" y="410" width="40" height="30" as="geometry" />
        </mxCell>
        <mxCell id="3pYKi4AClHYdLQsbnEup-191" style="edgeStyle=orthogonalEdgeStyle;shape=connector;rounded=0;orthogonalLoop=1;jettySize=auto;html=1;strokeColor=default;align=center;verticalAlign=middle;fontFamily=Helvetica;fontSize=11;fontColor=default;labelBackgroundColor=default;endArrow=none;endFill=0;" edge="1" parent="1">
          <mxGeometry relative="1" as="geometry">
            <mxPoint x="-450.08" y="370" as="targetPoint" />
            <mxPoint x="-450" y="400" as="sourcePoint" />
            <Array as="points">
              <mxPoint x="-450.11" y="380" />
              <mxPoint x="-450.11" y="380" />
            </Array>
          </mxGeometry>
        </mxCell>
        <mxCell id="3pYKi4AClHYdLQsbnEup-192" value="" style="ellipse;whiteSpace=wrap;html=1;aspect=fixed;fontFamily=Helvetica;fontSize=11;fontColor=default;labelBackgroundColor=default;" vertex="1" parent="1">
          <mxGeometry x="-455" y="400" width="10" height="10" as="geometry" />
        </mxCell>
        <mxCell id="3pYKi4AClHYdLQsbnEup-194" value="" style="ellipse;whiteSpace=wrap;html=1;aspect=fixed;fontFamily=Helvetica;fontSize=11;fontColor=default;labelBackgroundColor=default;" vertex="1" parent="1">
          <mxGeometry x="-495" y="400" width="10" height="10" as="geometry" />
        </mxCell>
        <mxCell id="3pYKi4AClHYdLQsbnEup-195" value="Durata" style="text;html=1;align=center;verticalAlign=middle;resizable=0;points=[];autosize=1;strokeColor=none;fillColor=none;fontFamily=Helvetica;fontSize=11;fontColor=default;labelBackgroundColor=default;" vertex="1" parent="1">
          <mxGeometry x="-480" y="410" width="60" height="30" as="geometry" />
        </mxCell>
        <mxCell id="3pYKi4AClHYdLQsbnEup-196" value="Prezzo" style="text;html=1;align=center;verticalAlign=middle;resizable=0;points=[];autosize=1;strokeColor=none;fillColor=none;fontFamily=Helvetica;fontSize=11;fontColor=default;labelBackgroundColor=default;" vertex="1" parent="1">
          <mxGeometry x="-440" y="410" width="60" height="30" as="geometry" />
        </mxCell>
        <mxCell id="3pYKi4AClHYdLQsbnEup-197" style="edgeStyle=orthogonalEdgeStyle;shape=connector;rounded=0;orthogonalLoop=1;jettySize=auto;html=1;strokeColor=default;align=center;verticalAlign=middle;fontFamily=Helvetica;fontSize=11;fontColor=default;labelBackgroundColor=default;endArrow=none;endFill=0;" edge="1" parent="1">
          <mxGeometry relative="1" as="geometry">
            <mxPoint x="-530" y="364.92" as="targetPoint" />
            <mxPoint x="-500" y="364.92" as="sourcePoint" />
          </mxGeometry>
        </mxCell>
        <mxCell id="3pYKi4AClHYdLQsbnEup-198" value="" style="ellipse;whiteSpace=wrap;html=1;aspect=fixed;fontFamily=Helvetica;fontSize=11;fontColor=default;labelBackgroundColor=default;" vertex="1" parent="1">
          <mxGeometry x="-540" y="360" width="10" height="10" as="geometry" />
        </mxCell>
        <mxCell id="3pYKi4AClHYdLQsbnEup-199" value="Descrizione" style="text;html=1;align=center;verticalAlign=middle;resizable=0;points=[];autosize=1;strokeColor=none;fillColor=none;fontFamily=Helvetica;fontSize=11;fontColor=default;labelBackgroundColor=default;" vertex="1" parent="1">
          <mxGeometry x="-615" y="350" width="80" height="30" as="geometry" />
        </mxCell>
        <mxCell id="3pYKi4AClHYdLQsbnEup-202" style="edgeStyle=orthogonalEdgeStyle;shape=connector;rounded=0;orthogonalLoop=1;jettySize=auto;html=1;exitX=0.25;exitY=0;exitDx=0;exitDy=0;strokeColor=default;align=center;verticalAlign=middle;fontFamily=Helvetica;fontSize=11;fontColor=default;labelBackgroundColor=default;endArrow=none;endFill=0;" edge="1" parent="1">
          <mxGeometry relative="1" as="geometry">
            <mxPoint x="-235.03999999999996" y="200" as="targetPoint" />
            <mxPoint x="-235.07" y="230" as="sourcePoint" />
            <Array as="points">
              <mxPoint x="-235.09" y="210" />
              <mxPoint x="-235.09" y="210" />
            </Array>
          </mxGeometry>
        </mxCell>
        <mxCell id="3pYKi4AClHYdLQsbnEup-204" value="Id_Feedback" style="text;html=1;align=center;verticalAlign=middle;resizable=0;points=[];autosize=1;strokeColor=none;fillColor=none;fontFamily=Helvetica;fontSize=11;fontColor=default;labelBackgroundColor=default;" vertex="1" parent="1">
          <mxGeometry x="-120" y="165" width="90" height="30" as="geometry" />
        </mxCell>
        <mxCell id="3pYKi4AClHYdLQsbnEup-205" style="edgeStyle=orthogonalEdgeStyle;shape=connector;rounded=0;orthogonalLoop=1;jettySize=auto;html=1;strokeColor=default;align=center;verticalAlign=middle;fontFamily=Helvetica;fontSize=11;fontColor=default;labelBackgroundColor=default;endArrow=none;endFill=0;exitX=0.5;exitY=0;exitDx=0;exitDy=0;" edge="1" parent="1" source="3pYKi4AClHYdLQsbnEup-206">
          <mxGeometry relative="1" as="geometry">
            <mxPoint x="-205.06" y="200" as="targetPoint" />
            <mxPoint x="-204.98000000000002" y="227" as="sourcePoint" />
            <Array as="points">
              <mxPoint x="-205" y="210" />
              <mxPoint x="-205" y="210" />
            </Array>
          </mxGeometry>
        </mxCell>
        <mxCell id="3pYKi4AClHYdLQsbnEup-206" value="" style="ellipse;whiteSpace=wrap;html=1;aspect=fixed;fontFamily=Helvetica;fontSize=11;fontColor=default;labelBackgroundColor=default;" vertex="1" parent="1">
          <mxGeometry x="-210" y="230" width="10" height="10" as="geometry" />
        </mxCell>
        <mxCell id="3pYKi4AClHYdLQsbnEup-208" style="edgeStyle=orthogonalEdgeStyle;shape=connector;rounded=0;orthogonalLoop=1;jettySize=auto;html=1;strokeColor=default;align=center;verticalAlign=middle;fontFamily=Helvetica;fontSize=11;fontColor=default;labelBackgroundColor=default;endArrow=none;endFill=0;exitX=0.5;exitY=0;exitDx=0;exitDy=0;" edge="1" parent="1" source="3pYKi4AClHYdLQsbnEup-209">
          <mxGeometry relative="1" as="geometry">
            <mxPoint x="-165.06" y="200" as="targetPoint" />
            <mxPoint x="-164.98000000000002" y="227" as="sourcePoint" />
            <Array as="points">
              <mxPoint x="-165" y="210" />
              <mxPoint x="-165" y="210" />
            </Array>
          </mxGeometry>
        </mxCell>
        <mxCell id="3pYKi4AClHYdLQsbnEup-209" value="" style="ellipse;whiteSpace=wrap;html=1;aspect=fixed;fontFamily=Helvetica;fontSize=11;fontColor=default;labelBackgroundColor=default;" vertex="1" parent="1">
          <mxGeometry x="-170" y="230" width="10" height="10" as="geometry" />
        </mxCell>
        <mxCell id="3pYKi4AClHYdLQsbnEup-210" value="Commento" style="text;html=1;align=center;verticalAlign=middle;resizable=0;points=[];autosize=1;strokeColor=none;fillColor=none;fontFamily=Helvetica;fontSize=11;fontColor=default;labelBackgroundColor=default;" vertex="1" parent="1">
          <mxGeometry x="-200" y="238" width="80" height="30" as="geometry" />
        </mxCell>
        <mxCell id="3pYKi4AClHYdLQsbnEup-212" value="Data" style="text;html=1;align=center;verticalAlign=middle;resizable=0;points=[];autosize=1;strokeColor=none;fillColor=none;fontFamily=Helvetica;fontSize=11;fontColor=default;labelBackgroundColor=default;" vertex="1" parent="1">
          <mxGeometry x="-230" y="238" width="50" height="30" as="geometry" />
        </mxCell>
        <mxCell id="3pYKi4AClHYdLQsbnEup-213" value="" style="ellipse;whiteSpace=wrap;html=1;aspect=fixed;fontFamily=Helvetica;fontSize=11;fontColor=default;labelBackgroundColor=default;" vertex="1" parent="1">
          <mxGeometry x="-240" y="230" width="10" height="10" as="geometry" />
        </mxCell>
        <mxCell id="3pYKi4AClHYdLQsbnEup-214" value="Voto" style="text;html=1;align=center;verticalAlign=middle;resizable=0;points=[];autosize=1;strokeColor=none;fillColor=none;fontFamily=Helvetica;fontSize=11;fontColor=default;labelBackgroundColor=default;" vertex="1" parent="1">
          <mxGeometry x="-260" y="238" width="50" height="30" as="geometry" />
        </mxCell>
        <mxCell id="3pYKi4AClHYdLQsbnEup-215" value="(1:N)" style="text;html=1;align=center;verticalAlign=middle;resizable=0;points=[];autosize=1;strokeColor=none;fillColor=none;fontFamily=Helvetica;fontSize=11;fontColor=default;labelBackgroundColor=default;fontStyle=1" vertex="1" parent="1">
          <mxGeometry x="-650" y="150" width="50" height="30" as="geometry" />
        </mxCell>
        <mxCell id="3pYKi4AClHYdLQsbnEup-216" value="(1:1)" style="text;html=1;align=center;verticalAlign=middle;resizable=0;points=[];autosize=1;strokeColor=none;fillColor=none;fontFamily=Helvetica;fontSize=11;fontColor=default;labelBackgroundColor=default;fontStyle=1" vertex="1" parent="1">
          <mxGeometry x="-545" y="150" width="50" height="30" as="geometry" />
        </mxCell>
        <mxCell id="3pYKi4AClHYdLQsbnEup-217" value="(1:1)" style="text;html=1;align=center;verticalAlign=middle;resizable=0;points=[];autosize=1;strokeColor=none;fillColor=none;fontFamily=Helvetica;fontSize=11;fontColor=default;labelBackgroundColor=default;fontStyle=1" vertex="1" parent="1">
          <mxGeometry x="-405" y="148" width="50" height="30" as="geometry" />
        </mxCell>
        <mxCell id="3pYKi4AClHYdLQsbnEup-218" value="(1:1)" style="text;html=1;align=center;verticalAlign=middle;resizable=0;points=[];autosize=1;strokeColor=none;fillColor=none;fontFamily=Helvetica;fontSize=11;fontColor=default;labelBackgroundColor=default;fontStyle=1" vertex="1" parent="1">
          <mxGeometry x="-300" y="150" width="50" height="30" as="geometry" />
        </mxCell>
        <mxCell id="3pYKi4AClHYdLQsbnEup-219" value="(1:1)" style="text;html=1;align=center;verticalAlign=middle;resizable=0;points=[];autosize=1;strokeColor=none;fillColor=none;fontFamily=Helvetica;fontSize=11;fontColor=default;labelBackgroundColor=default;fontStyle=1" vertex="1" parent="1">
          <mxGeometry x="-450" y="200" width="50" height="30" as="geometry" />
        </mxCell>
        <mxCell id="3pYKi4AClHYdLQsbnEup-220" value="(1:N)" style="text;html=1;align=center;verticalAlign=middle;resizable=0;points=[];autosize=1;strokeColor=none;fillColor=none;fontFamily=Helvetica;fontSize=11;fontColor=default;labelBackgroundColor=default;fontStyle=1" vertex="1" parent="1">
          <mxGeometry x="-450" y="300" width="50" height="30" as="geometry" />
        </mxCell>
      </root>
    </mxGraphModel>
  </diagram>
</mxfile>
